<?xml version="1.0" standalone="no"?>
<!DOCTYPE svg PUBLIC "-//W3C//DTD SVG 20010904//EN"
 "http://www.w3.org/TR/2001/REC-SVG-20010904/DTD/svg10.dtd">
<svg version="1.0" xmlns="http://www.w3.org/2000/svg"
 width="260.000000pt" height="260.000000pt" viewBox="0 0 260.000000 260.000000"
 preserveAspectRatio="xMidYMid meet">
<metadata>
Created by potrace 1.14, written by Peter Selinger 2001-2017
</metadata>
<g transform="translate(0.000000,260.000000) scale(0.100000,-0.100000)"
fill="#000000" stroke="none">
<path d="M205 2583 c-64 -19 -90 -44 -111 -106 -15 -46 -15 -54 0 -102 9 -28
26 -61 39 -73 26 -24 116 -50 187 -53 l50 -3 352 -460 c194 -253 352 -467 352
-476 0 -9 -162 -228 -359 -487 l-360 -472 -40 0 c-60 -1 -157 -29 -182 -53
-12 -11 -30 -43 -38 -69 -15 -44 -15 -54 -1 -102 33 -113 80 -127 421 -127
341 0 388 14 421 127 14 48 14 58 -1 102 -19 59 -46 85 -105 102 -25 7 -47 14
-48 15 -6 4 509 674 518 674 9 0 524 -670 518 -674 -1 -2 -24 -9 -51 -16 -56
-15 -89 -49 -106 -113 -11 -39 -11 -53 3 -95 36 -108 83 -122 421 -122 337 0
385 14 420 121 15 44 15 54 1 102 -8 29 -26 62 -38 74 -29 26 -117 53 -177 54
l-46 0 -360 472 c-197 259 -359 478 -359 487 0 9 159 224 353 478 l354 462 48
0 c61 0 50 -2 111 16 68 20 94 45 114 109 15 48 15 56 0 102 -36 109 -83 123
-421 123 -340 0 -386 -14 -421 -125 -15 -48 -15 -55 0 -102 20 -60 42 -83 101
-103 l44 -15 -249 -325 c-136 -179 -254 -325 -260 -325 -6 0 -124 146 -260
325 l-249 325 44 15 c59 20 81 43 101 103 15 47 15 54 0 102 -35 112 -81 125
-425 124 -199 0 -267 -4 -306 -16z"/>
</g>
</svg>
